<svg width="28" height="32" viewBox="0 0 28 32" fill="none" xmlns="http://www.w3.org/2000/svg">
<path d="M21.6 29H6.4C5.73333 29 5.16667 28.7789 4.7 28.3368C4.23333 27.8947 4 27.3579 4 26.7263V7.27368C4 6.64211 4.23333 6.10526 4.7 5.66316C5.16667 5.22105 5.73333 5 6.4 5H17L24 11.6316V26.7263C24 27.3579 23.7667 27.8947 23.3 28.3368C22.8333 28.7789 22.2667 29 21.6 29ZM16 12.5789V6.89474H6.4C6.31111 6.89474 6.22222 6.93684 6.13333 7.02105C6.04444 7.10526 6 7.18947 6 7.27368V26.7263C6 26.8105 6.04444 26.8947 6.13333 26.9789C6.22222 27.0632 6.31111 27.1053 6.4 27.1053H21.6C21.6889 27.1053 21.7778 27.0632 21.8667 26.9789C21.9556 26.8947 22 26.8105 22 26.7263V12.5789H16ZM12.6 23.8526L19.6667 17.1579L18.2333 15.8L12.5667 21.1368L9.76667 18.4526L8.33333 19.8105L12.6 23.8526ZM6 6.89474V12.5789V26.7263V7.27368C6 7.18947 6 7.10526 6 7.02105C6 6.93684 6 6.89474 6 6.89474Z" fill="black" fill-opacity="0.6"/>
</svg>
