<svg width="25" height="25" viewBox="0 0 25 25" fill="none" xmlns="http://www.w3.org/2000/svg">
<path d="M16.9619 12.6027C16.9619 15.1825 14.8705 17.2738 12.2907 17.2738C9.71096 17.2738 7.61963 15.1825 7.61963 12.6027C7.61963 10.0229 9.71096 7.93158 12.2907 7.93158C14.8705 7.93158 16.9619 10.0229 16.9619 12.6027Z" stroke="#979797"/>
<line y1="-0.5" x2="4.55689" y2="-0.5" transform="matrix(-0.625412 0.780294 -0.780297 -0.62541 20.511 3.5777)" stroke="#979797"/>
<line y1="-0.5" x2="4.55689" y2="-0.5" transform="matrix(0.625412 0.780294 0.780297 -0.62541 4.07056 3.5777)" stroke="#979797"/>
<line x1="12.7908" y1="0.602661" x2="12.7908" y2="5.15955" stroke="#979797"/>
<line y1="-0.5" x2="4.55689" y2="-0.5" transform="matrix(-4.5055e-07 -1 -1 4.24078e-09 12.2908 24.6027)" stroke="#979797"/>
<line x1="0.288881" y1="12.1481" x2="4.8458" y2="12.1308" stroke="#979797"/>
<line y1="-0.5" x2="4.55696" y2="-0.5" transform="matrix(-0.999993 0.00378187 0.0037819 0.999993 24.2908 12.5573)" stroke="#979797"/>
<line y1="-0.5" x2="4.55689" y2="-0.5" transform="matrix(-0.625412 -0.780294 -0.780297 0.62541 20.511 21.6277)" stroke="#979797"/>
<line y1="-0.5" x2="4.55689" y2="-0.5" transform="matrix(0.625412 -0.780294 0.780297 0.62541 4.07056 21.6277)" stroke="#979797"/>
</svg>
